<svg xmlns="http://www.w3.org/2000/svg" viewBox="0 0 100 100" width="32" height="32">
  <!-- 배경 -->
  <rect width="100" height="100" rx="20" fill="#1e293b" />
  
  <!-- 폭죽 효과 -->
  <g stroke-linecap="round" stroke-width="3">
    <!-- 중앙 폭발 -->
    <circle cx="50" cy="50" r="8" fill="#f97316" />
    
    <!-- 불꽃 광선 -->
    <line x1="50" y1="25" x2="50" y2="15" stroke="#f97316" />
    <line x1="50" y1="75" x2="50" y2="85" stroke="#f97316" />
    <line x1="25" y1="50" x2="15" y2="50" stroke="#f97316" />
    <line x1="75" y1="50" x2="85" y2="50" stroke="#f97316" />
    
    <!-- 대각선 광선 -->
    <line x1="35" y1="35" x2="25" y2="25" stroke="#f97316" />
    <line x1="65" y1="35" x2="75" y2="25" stroke="#f97316" />
    <line x1="35" y1="65" x2="25" y2="75" stroke="#f97316" />
    <line x1="65" y1="65" x2="75" y2="75" stroke="#f97316" />
    
    <!-- 작은 불꽃 -->
    <circle cx="30" cy="30" r="3" fill="#eab308" />
    <circle cx="70" cy="30" r="3" fill="#eab308" />
    <circle cx="30" cy="70" r="3" fill="#eab308" />
    <circle cx="70" cy="70" r="3" fill="#eab308" />
    
    <!-- 부가적인 장식 -->
    <circle cx="40" cy="25" r="2" fill="#ec4899" />
    <circle cx="60" cy="25" r="2" fill="#ec4899" />
    <circle cx="40" cy="75" r="2" fill="#ec4899" />
    <circle cx="60" cy="75" r="2" fill="#ec4899" />
    <circle cx="25" cy="40" r="2" fill="#ec4899" />
    <circle cx="75" cy="40" r="2" fill="#ec4899" />
    <circle cx="25" cy="60" r="2" fill="#ec4899" />
    <circle cx="75" cy="60" r="2" fill="#ec4899" />
  </g>
</svg> 